Patient4_TMGait_0pt5_02_left_25_EMG.mot
version=1
nRows=30
nColumns=33
inDegrees=no
endheader
time	1LAddLong	2LGlutMax	3LGlutMed	4LIliopsoas	5LSemiMemb	6LBicFemLong	7LRecFem	8LVastMed	9LVastLat	10LGasMed	11LTibAnt	12lTibPost	13LPeroneusLong	14LSol	15LExtDigLong	16LFlexDigLong	17RAddLong	18RGlutMax	19RGlutMed	20RIliopsoas	21RSemiMemb	22RBicFemLong	23RRecFem	24RVastMed	25RVastLat	26RGasMed	27RTibAnt	28RTibPost	29RPeroneusLong	30RSol	31RExtDigLong	32RFlexDigLong
31.86	0.019684	-0.043793	-0.10284	-0.005493	0.005188	0.001221	-0.043793	0.018005	-0.027771	0.006866	0.050507	0.002899	0.031891	0.069885	0.062866	0.016022	-0.004578	-0.24506	-0.28717	-0.041199	-0.1152	0.36194	-0.27618	0.042267	0.070801	-0.098114	0.45929	-0.014343	-0.51102	-0.19165	-0.00351	-0.001678
31.861	0.014954	-0.011749	-0.072937	-0.0177	0.003052	0.006104	-0.03067	0.015869	0.08255	0.019531	0.075684	-0.000153	0.034027	0.057526	0.17777	0.024414	-0.010376	-0.27969	0.34805	-0.13473	-0.010376	0.45624	-0.12817	0.0914	0.063934	-0.063934	0.18509	-0.014496	0.22781	-0.13763	0.000763	-0.002594
31.862	0.005951	0.015259	-0.096436	-0.017548	0.001373	-0.009766	-0.032349	0.010071	0.27115	-0.007172	-0.040741	0.001221	0.093079	0.0354	0.30212	0.007935	-0.042419	-0.26047	0.12283	-0.16007	0.041046	0.46631	-0.11322	0.05661	0.01709	0.042725	0.15472	-0.020447	0.48996	-0.053101	-0.001831	-0.009003
31.863	0.011749	0.004578	-0.090332	-0.003357	-0.00946	0.013733	-0.035706	0.015717	0.4126	-0.029449	-0.13229	0.004425	0.12009	0.045471	0.41016	0.025024	-0.025482	-0.23346	0.2684	-0.089569	0.037231	0.31189	-0.17456	0.10696	0.020142	0.018616	0.17136	-0.024872	0.75028	0.15869	-0.001984	-0.007172
31.864	0.016632	-0.004425	-0.11017	-0.006409	-0.001678	-0.005646	-0.049896	0.007477	0.52261	-0.03479	-0.17716	0.003052	0.078278	0.039368	0.1593	0.0177	-0.014191	-0.22446	0.36743	-0.023346	0.18356	0.14236	-0.097809	0.086517	0.00885	-0.083923	0.15182	-0.039368	0.63004	0.10895	-0.001068	-0.003052
31.865	0.012665	0.005188	-0.10773	0.002289	0.001678	0.000153	-0.064087	0.011444	0.57495	-0.027161	-0.21576	0.006256	0.076904	0.026245	-0.039368	0.011444	-0.005188	-0.19363	0.23514	0.066986	0.069427	-0.081024	-0.06134	0.02655	0.009003	-0.12085	0.15564	-0.02533	-0.54214	0.006866	-0.007477	-0.007629
31.866	0.012512	0.027161	-0.12299	0.018921	0.000153	-0.027161	-0.045013	0.012512	0.6189	-0.030518	-0.1796	-0.001068	0.07309	0.00824	-0.15961	0.008087	-0.004578	-0.22079	0.77972	0.14771	-0.020294	-0.17151	0.001984	-0.017395	0.028992	-0.079956	0.071564	-0.024567	-0.85907	0.010071	-0.004578	0.00946
31.867	0.007477	0.024719	-0.11917	0.006561	-0.00885	-0.004578	-0.020752	0.016022	0.61813	-0.032349	0.005646	-0.002747	0.085754	0.041809	-0.13916	0.011597	0.015259	-0.064392	0.69885	0.1535	0.049438	-0.23468	0.001526	0.036469	0.083923	-0.044556	0.056458	-0.018768	-0.84579	0.054474	-0.002747	0.005798
31.868	0.007324	0.050507	-0.12543	0.04303	0.002899	-0.013733	0.005646	0.012054	0.57449	-0.00946	0.15732	0.007935	0.017395	0.073853	-0.050354	0.004883	0.024567	-0.050507	0.15701	0.070953	0.018158	-0.18936	0.025024	-0.002289	0.087891	0.19821	-0.032959	-0.014038	-0.14435	-0.041351	-0.004578	0.001831
31.869	0.010071	0.066376	-0.11856	0.026093	0.008545	-0.032043	0.032806	0.013733	0.48157	0.008698	0.16617	0.008087	0.013885	0.076141	0.050507	0.021057	0.026398	-0.001831	0.14755	-0.029907	-0.072327	-0.03891	-0.015717	0.025482	0.069122	0.15259	-0.13245	0.001526	0.45578	-0.00885	-0.006866	-0.009003
31.87	0.010223	0.042267	-0.11444	0.000305	0.012665	-0.033875	0.057831	0.006256	0.33035	-0.010376	0.20279	0.007477	0.004578	0.063171	0.38834	0.012207	0.029144	-0.049744	0.08255	-0.024567	0.063782	-0.12512	0.008698	-0.049896	0.022583	0.025024	-0.098572	-0.062103	0.54367	-0.011139	-0.004425	-0.015717
31.871	0.009308	0.000763	-0.12131	0.012207	0.00351	-0.014801	0.091705	0.00824	0.090332	-0.033722	-0.08255	0.002594	0.02182	0.069885	-0.022278	0.007629	0.039063	-0.092316	0.29343	-0.038452	0.14038	-0.27695	-0.021667	-0.061951	-0.012665	0.009613	0.074615	0.08194	0.66879	-0.16846	-0.002747	-0.014801
31.872	0.015106	0.005035	-0.11566	0.002441	0.008392	0.003052	0.12268	0.009003	-0.23071	-0.023193	-0.10193	0.003204	0.019073	0.027008	-0.29831	0.016479	0.047607	-0.095215	0.51422	-0.043793	0.075073	-0.19196	0.049133	-0.074615	0.005341	-0.023193	0.11047	0.013275	0.18631	-0.024414	0.000153	-0.014343
31.873	0.016785	0.009308	-0.12909	0.001831	-0.00824	0.032349	0.15152	0.011749	-0.67993	-0.010071	-0.14069	0.010071	0.005798	-0.042725	-0.22492	0.007629	0.02243	0.014801	0.57968	0.026398	-0.090027	0.028381	0.088806	-0.048523	0.003357	-0.045013	0.047302	-0.039063	-0.063324	0.10452	0.002594	-0.00885
31.874	0.014648	-0.02182	-0.11765	-0.012817	0.005035	0.038605	0.15366	0.009918	-1.3025	0.00946	-0.097809	0.00885	0.030975	-0.10452	-0.27176	0.013123	-0.019073	-0.000153	0.48889	0.028839	-0.17136	0.21301	0.14542	-0.041809	-0.029449	-0.003967	0.050354	-0.029144	0.034027	0.22629	-0.002289	-0.010529
31.875	0.019226	-0.016785	-0.10468	-0.011292	0.011597	0.028839	0.14999	0.012054	-1.7584	0.010376	-0.057831	0.003052	0.082703	-0.11032	-0.018768	0.009918	-0.00946	-0.095673	-0.034332	0.077515	-0.21439	0.23499	0.12985	-0.029755	-0.046539	0.04715	0.06134	-0.022125	0.09613	0.29129	-0.000916	-0.010223
31.876	0.012207	-0.037689	-0.11993	-0.011444	0.007935	0.046692	0.1741	0.015106	-1.7979	-0.011902	-0.089111	-0.001221	0.072784	-0.055695	0.42954	0.019836	0.006409	-0.10757	-0.001373	0.046997	-0.13412	0.040894	0.12711	-0.09201	-0.09903	0.027618	0.057831	-0.020752	-0.005646	0.30212	-0.001678	-0.006561
31.877	0.014648	-0.08606	-0.10544	0.006714	0.009155	0.049286	0.19196	0.013275	-1.5183	0.004883	-0.10788	0.000153	0.077972	0.009155	0.26032	0.007324	-0.003967	-0.1445	0.19775	-0.02182	0.031281	-0.039063	0.2034	-0.036621	-0.069122	-0.02655	0.10773	-0.011139	0.037537	-0.067444	0.005493	-0.012054
31.878	0.010529	-0.077057	-0.10483	-0.014496	-0.00412	0.057526	0.19943	0.014038	-1.2663	0.000763	-0.15076	0.004578	0.074158	0.093231	-0.15305	0.002441	0.009613	-0.058136	0.25009	-0.11917	0.19028	-0.000916	0.12711	-0.024872	-0.021057	0.003967	0.34637	0.068207	-0.080566	-0.35523	0.000305	-0.010071
31.879	-0.001526	-0.062714	-0.10071	-0.006104	-0.003662	0.036926	0.21622	0.006561	-0.97931	0.000153	-0.10681	0.005188	0.039063	0.096436	-0.17334	0.008545	0.012512	-0.095062	0.45166	-0.097046	0.1767	-0.003815	0.15213	-0.085297	-0.023651	0.01297	0.52277	0.032959	-0.06546	-0.26001	-0.002747	-0.014343
31.88	-0.001068	-0.10391	-0.097961	0.016022	-0.003357	0.019836	0.19623	0.009918	-0.72998	-0.012207	-0.11795	0.004578	0.042877	-0.046539	-0.40009	0.007324	0.016174	-0.15381	-0.062714	0.001373	0.070648	-0.012207	0.20233	-0.070953	-0.012665	-0.000916	0.59479	-0.029755	-0.27237	-0.03006	-0.001373	-0.002899
31.881	0.000916	-0.12695	-0.096741	0.002289	0.002289	0.026245	0.19104	0.006714	-0.51559	-0.034637	0.058136	0.001373	-0.001678	-0.039673	-0.1265	0.001068	0.00351	-0.12238	-0.54672	0.081177	-0.011902	-0.016632	-0.022583	-0.12726	0.094604	-0.00412	0.62393	0.015869	-0.63309	-0.20676	-0.003662	-0.007782
31.882	0.001831	-0.10712	-0.090179	0.004272	-0.003052	0.018463	0.17777	0.014038	-0.30868	-0.05188	0.21149	0.003052	-0.02655	0.002136	-0.18005	-0.005341	-0.022125	-0.091553	-0.27145	0.077972	-0.055389	-0.15747	-0.20767	-0.05188	0.14648	0.010376	0.26657	0.028687	-0.64423	-0.085449	-0.001221	0.001831
31.883	0.001526	-0.11841	-0.097504	0.02182	-0.003815	0.031891	0.16815	0.010071	-0.13412	-0.027313	0.14908	0.005188	-0.038605	-0.014191	-0.21606	0.014954	-0.009155	-0.099487	0.41977	0.065765	0.11246	-0.20325	-0.036621	0.006561	0.19424	0.014343	-0.51422	0.014191	-0.354	0.098724	-0.003052	-0.003815
31.884	0.00885	-0.12589	-0.10315	0.012054	-0.00473	0.02243	0.13229	0.010834	0.028839	0.009766	0.13641	0.006256	0.020447	0.027618	0.071106	-0.000763	-0.003204	-0.19028	0.39261	0.057526	0.048981	-0.10788	-0.17883	-0.028687	0.090485	-0.000458	-0.63629	0.001373	0.61722	0.041656	0.000305	0.000458
31.885	0.005798	-0.14618	-0.092163	0.006104	0.001373	0.012665	0.11719	0.011139	0.1651	0.019684	-0.02243	0.008087	0.064697	-0.007629	-0.07782	0.00824	-0.008087	-0.26794	-0.085602	0.08728	0.005188	0.011902	-0.34653	0.019226	0.000305	-0.012817	-0.27817	-0.001068	1.6075	-0.054779	-0.008087	0.000916
31.886	0.007782	-0.16007	-0.086517	0.022278	-0.002441	0.002594	0.093231	0.011902	0.26428	0.027313	-0.11917	-0.000458	0.057068	-0.01236	0.34256	0.001068	-0.006714	-0.20645	-0.31433	0.080261	0.003052	0.04364	-0.39627	-0.040283	-0.014343	-0.011139	-0.27054	0.000153	1.2531	-0.12009	-0.002136	-0.003967
31.887	0.007477	-0.12436	-0.071106	0.01297	-0.002441	-0.023956	0.07782	0.010376	0.32761	0.016327	0.005493	0.001221	0.050659	0.013733	0.24277	0.015411	-0.00061	-0.15778	0.22217	0.044708	-0.014496	0.059662	-0.14297	-0.044708	0.014954	0.003204	-0.13977	-0.000305	1.0797	-0.21637	-0.004272	0.003204
31.888	0.009308	-0.10132	-0.058746	0.014496	-0.006256	-0.021515	0.059204	0.008087	0.38605	-0.018463	0.075073	0.007172	0.099335	0.070801	-0.026245	0.00824	0.016174	-0.13351	0.16464	0.069885	-0.036011	0.028687	-0.11581	-0.024719	0.007935	-0.000763	-0.13855	0.001526	-0.10315	-0.23102	-0.003662	-0.003357
31.889	0.01358	-0.086365	-0.075531	0.000763	0.003204	-0.008392	0.061493	0.005493	0.41931	-0.084839	0.086975	0.005798	0.14603	0.17059	0.10178	0.00473	0.022583	-0.1828	0.13855	0.041809	-0.012054	-0.024261	-0.16434	0.03067	0.089417	0.000305	-1.1063	0.000305	-1.2614	-0.20126	-0.007935	-0.001068
